<svg width="58" height="59" viewBox="0 0 58 59" fill="none" xmlns="http://www.w3.org/2000/svg">
<g filter="url(#filter0_dd_595_29728)">
<rect x="3" y="2.5" width="52" height="52" rx="26" fill="white"/>
</g>
<path fill-rule="evenodd" clip-rule="evenodd" d="M32.9724 19.8111C33.9181 18.6703 34.5531 17.0807 34.3797 15.5C33.0197 15.5551 31.3737 16.4056 30.3999 17.5464C29.5251 18.5567 28.7595 20.1733 28.9666 21.7225C30.482 21.8406 32.0312 20.953 32.9747 19.8111H32.9724ZM36.3748 29.844C36.413 33.9301 39.9617 35.2902 40 35.3082C39.9719 35.4038 39.4348 37.2455 38.1311 39.1479C37.0052 40.7927 35.8366 42.4318 33.9947 42.4656C32.1855 42.4982 31.6045 41.3934 29.5352 41.3934C27.4681 41.3934 26.8219 42.4318 25.1083 42.4982C23.3317 42.5657 21.9785 40.7195 20.8414 39.0815C18.5221 35.729 16.7489 29.6089 19.1301 25.4778C20.3111 23.4258 22.4254 22.1264 24.7199 22.0937C26.465 22.06 28.1121 23.2671 29.1783 23.2671C30.2456 23.2671 32.2474 21.8159 34.3516 22.0285C35.2331 22.0656 37.7055 22.384 39.2941 24.7072C39.1657 24.7859 36.3432 26.4284 36.3736 29.844" fill="#332218"/>
<defs>
<filter id="filter0_dd_595_29728" x="0" y="0.5" width="58" height="58" filterUnits="userSpaceOnUse" color-interpolation-filters="sRGB">
<feFlood flood-opacity="0" result="BackgroundImageFix"/>
<feColorMatrix in="SourceAlpha" type="matrix" values="0 0 0 0 0 0 0 0 0 0 0 0 0 0 0 0 0 0 127 0" result="hardAlpha"/>
<feOffset dy="1"/>
<feGaussianBlur stdDeviation="1.5"/>
<feColorMatrix type="matrix" values="0 0 0 0 0.196078 0 0 0 0 0.196078 0 0 0 0 0.278431 0 0 0 0.1 0"/>
<feBlend mode="normal" in2="BackgroundImageFix" result="effect1_dropShadow_595_29728"/>
<feColorMatrix in="SourceAlpha" type="matrix" values="0 0 0 0 0 0 0 0 0 0 0 0 0 0 0 0 0 0 127 0" result="hardAlpha"/>
<feOffset/>
<feGaussianBlur stdDeviation="0.5"/>
<feColorMatrix type="matrix" values="0 0 0 0 0.0470588 0 0 0 0 0.101961 0 0 0 0 0.294118 0 0 0 0.2 0"/>
<feBlend mode="normal" in2="effect1_dropShadow_595_29728" result="effect2_dropShadow_595_29728"/>
<feBlend mode="normal" in="SourceGraphic" in2="effect2_dropShadow_595_29728" result="shape"/>
</filter>
</defs>
</svg>
